<svg xmlns="http://www.w3.org/2000/svg" xmlns:xlink="http://www.w3.org/1999/xlink" width="500" zoomAndPan="magnify" viewBox="0 0 375 374.999991" height="500" preserveAspectRatio="xMidYMid meet" version="1.0"><defs><g/><clipPath id="e231b47a18"><path d="M 82.941406 82.941406 L 292.050781 82.941406 L 292.050781 292.050781 L 82.941406 292.050781 Z M 82.941406 82.941406 " clip-rule="nonzero"/></clipPath><clipPath id="f715289366"><path d="M 187.496094 82.941406 C 129.753906 82.941406 82.941406 129.753906 82.941406 187.496094 C 82.941406 245.238281 129.753906 292.050781 187.496094 292.050781 C 245.238281 292.050781 292.050781 245.238281 292.050781 187.496094 C 292.050781 129.753906 245.238281 82.941406 187.496094 82.941406 Z M 187.496094 82.941406 " clip-rule="nonzero"/></clipPath><clipPath id="ca62b391a1"><path d="M 103.296875 103.296875 L 271.703125 103.296875 L 271.703125 271.703125 L 103.296875 271.703125 Z M 103.296875 103.296875 " clip-rule="nonzero"/></clipPath><clipPath id="3d7d84cef7"><path d="M 187.5 103.296875 C 140.996094 103.296875 103.296875 140.996094 103.296875 187.5 C 103.296875 234.003906 140.996094 271.703125 187.5 271.703125 C 234.003906 271.703125 271.703125 234.003906 271.703125 187.5 C 271.703125 140.996094 234.003906 103.296875 187.5 103.296875 Z M 187.5 103.296875 " clip-rule="nonzero"/></clipPath><clipPath id="e0f8674c32"><path d="M 144.21875 149.328125 L 232.71875 149.328125 L 232.71875 217.578125 L 144.21875 217.578125 Z M 144.21875 149.328125 " clip-rule="nonzero"/></clipPath><clipPath id="55b454ea49"><path d="M 184 149.328125 L 225 149.328125 L 225 200 L 184 200 Z M 184 149.328125 " clip-rule="nonzero"/></clipPath><clipPath id="55cce50329"><path d="M 155 149.328125 L 206 149.328125 L 206 203 L 155 203 Z M 155 149.328125 " clip-rule="nonzero"/></clipPath><clipPath id="8b9a1331fd"><path d="M 167 197 L 187 197 L 187 217.578125 L 167 217.578125 Z M 167 197 " clip-rule="nonzero"/></clipPath><clipPath id="7f5b3ef299"><path d="M 145 171 L 228 171 L 228 217.578125 L 145 217.578125 Z M 145 171 " clip-rule="nonzero"/></clipPath><clipPath id="937eedf6a3"><path d="M 184 149.328125 L 225 149.328125 L 225 200 L 184 200 Z M 184 149.328125 " clip-rule="nonzero"/></clipPath></defs><g clip-path="url(#e231b47a18)"><g clip-path="url(#f715289366)"><path stroke-linecap="butt" transform="matrix(0.75, 0, 0, 0.75, 82.94151, 82.941499)" fill="none" stroke-linejoin="miter" d="M 139.40612 -0.000123071 C 62.416532 -0.000123071 -0.000138671 62.416548 -0.000138671 139.406136 C -0.000138671 216.395724 62.416532 278.812395 139.40612 278.812395 C 216.395709 278.812395 278.81238 216.395724 278.81238 139.406136 C 278.81238 62.416548 216.395709 -0.000123071 139.40612 -0.000123071 Z M 139.40612 -0.000123071 " stroke="#ffffff" stroke-width="4" stroke-opacity="1" stroke-miterlimit="4"/></g></g><g clip-path="url(#ca62b391a1)"><g clip-path="url(#3d7d84cef7)"><path fill="#ffffff" d="M 103.296875 103.296875 L 271.703125 103.296875 L 271.703125 271.703125 L 103.296875 271.703125 Z M 103.296875 103.296875 " fill-opacity="1" fill-rule="nonzero"/></g></g><path fill="#272727" d="M 95.207031 123.628906 C 94.898438 123.382812 94.621094 123.105469 94.367188 122.804688 C 94.113281 122.503906 93.890625 122.179688 93.699219 121.835938 C 93.507812 121.492188 93.351562 121.132812 93.230469 120.757812 C 93.109375 120.382812 93.027344 120 92.980469 119.609375 C 92.933594 119.214844 92.925781 118.824219 92.953125 118.433594 C 92.980469 118.039062 93.046875 117.652344 93.152344 117.273438 C 93.257812 116.890625 93.394531 116.527344 93.570312 116.171875 C 93.746094 115.820312 93.953125 115.488281 94.191406 115.175781 C 97.125 111.722656 100.25 108.449219 103.558594 105.351562 C 106.867188 102.257812 110.34375 99.359375 113.984375 96.664062 C 117.625 93.964844 121.40625 91.484375 125.332031 89.21875 C 129.253906 86.953125 133.296875 84.921875 137.453125 83.117188 C 141.609375 81.316406 145.859375 79.757812 150.195312 78.441406 C 154.527344 77.125 158.925781 76.058594 163.382812 75.246094 C 167.839844 74.429688 172.332031 73.875 176.851562 73.574219 C 181.371094 73.273438 185.898438 73.234375 190.421875 73.453125 C 190.816406 73.492188 191.199219 73.566406 191.578125 73.679688 C 191.953125 73.792969 192.316406 73.941406 192.664062 74.125 C 193.011719 74.3125 193.339844 74.527344 193.648438 74.773438 C 193.953125 75.019531 194.234375 75.296875 194.488281 75.597656 C 194.742188 75.898438 194.960938 76.222656 195.152344 76.566406 C 195.34375 76.910156 195.5 77.269531 195.621094 77.644531 C 195.742188 78.019531 195.828125 78.402344 195.875 78.792969 C 195.921875 79.1875 195.929688 79.578125 195.898438 79.972656 L 194.691406 92.113281 C 194.664062 92.519531 194.59375 92.921875 194.488281 93.316406 C 194.378906 93.707031 194.230469 94.089844 194.046875 94.453125 C 193.863281 94.816406 193.644531 95.160156 193.390625 95.480469 C 193.136719 95.804688 192.855469 96.09375 192.542969 96.359375 C 192.230469 96.625 191.894531 96.855469 191.539062 97.050781 C 191.179688 97.246094 190.804688 97.40625 190.414062 97.527344 C 190.023438 97.648438 189.625 97.730469 189.21875 97.773438 C 188.8125 97.8125 188.40625 97.8125 188 97.773438 C 184.503906 97.652344 181.015625 97.722656 177.53125 97.988281 C 174.042969 98.253906 170.582031 98.714844 167.148438 99.363281 C 163.714844 100.015625 160.324219 100.855469 156.984375 101.878906 C 153.640625 102.90625 150.367188 104.117188 147.160156 105.507812 C 143.953125 106.898438 140.832031 108.460938 137.800781 110.199219 C 134.765625 111.9375 131.835938 113.835938 129.015625 115.898438 C 126.191406 117.960938 123.492188 120.171875 120.917969 122.535156 C 118.339844 124.898438 115.902344 127.394531 113.601562 130.027344 C 113.351562 130.355469 113.074219 130.648438 112.765625 130.917969 C 112.457031 131.1875 112.128906 131.421875 111.773438 131.625 C 111.417969 131.828125 111.042969 131.992188 110.65625 132.117188 C 110.265625 132.246094 109.871094 132.332031 109.464844 132.378906 C 109.058594 132.425781 108.652344 132.433594 108.242188 132.398438 C 107.835938 132.363281 107.4375 132.289062 107.042969 132.175781 C 106.652344 132.0625 106.273438 131.90625 105.914062 131.71875 C 105.550781 131.527344 105.210938 131.300781 104.894531 131.042969 Z M 95.207031 123.628906 " fill-opacity="1" fill-rule="nonzero"/><g fill="#ffffff" fill-opacity="1"><g transform="translate(105.998186, 128.897981)"><g><path d="M 2.253906 -19.753906 L 0.269531 -17.652344 L 5.285156 -10.992188 L -2.292969 -14.9375 L -4.0625 -13.0625 L 0.316406 -5.726562 L -6.625 -10.347656 L -8.609375 -8.242188 L 1.648438 -1.746094 L 3.789062 -4.015625 L -0.582031 -11.5625 L 7.191406 -7.625 L 9.335938 -9.894531 Z M 2.253906 -19.753906 "/></g></g></g><g fill="#ffffff" fill-opacity="1"><g transform="translate(119.871775, 114.863903)"><g><path d="M 4.753906 -10.875 C 5.839844 -9.390625 5.488281 -7.046875 4 -5.960938 C 2.515625 -4.875 0.179688 -5.253906 -0.90625 -6.738281 C -1.992188 -8.226562 -1.628906 -10.550781 -0.144531 -11.636719 C 1.339844 -12.722656 3.667969 -12.359375 4.753906 -10.875 Z M 6.886719 -12.410156 C 4.941406 -15.074219 0.976562 -15.691406 -1.683594 -13.746094 C -4.347656 -11.800781 -4.964844 -7.835938 -3.019531 -5.175781 C -1.078125 -2.511719 2.890625 -1.894531 5.550781 -3.839844 C 8.214844 -5.78125 8.832031 -9.75 6.886719 -12.410156 Z M 6.886719 -12.410156 "/></g></g></g><g fill="#ffffff" fill-opacity="1"><g transform="translate(133.931781, 104.876284)"><g><path d="M 14.347656 -6.886719 L 7.105469 -16.628906 L 4.292969 -15.28125 L 5.683594 -6.671875 L -0.179688 -13.132812 L -2.992188 -11.785156 L 0.078125 -0.0390625 L 2.6875 -1.289062 L 0.394531 -9.308594 L 6.050781 -2.90625 L 8.375 -4.019531 L 6.921875 -12.4375 L 11.742188 -5.632812 Z M 14.347656 -6.886719 "/></g></g></g><g fill="#ffffff" fill-opacity="1"><g transform="translate(152.070235, 96.833838)"><g><path d="M 6.964844 -4.523438 L 2.863281 -3.324219 L 2.1875 -5.625 L 6.125 -6.78125 L 5.453125 -9.066406 L 1.515625 -7.914062 L 0.851562 -10.183594 L 4.957031 -11.386719 L 4.285156 -13.675781 L -2.339844 -11.734375 L 1.007812 -0.296875 L 7.636719 -2.238281 Z M 6.964844 -4.523438 "/></g></g></g><g fill="#ffffff" fill-opacity="1"><g transform="translate(164.593201, 93.369231)"><g><path d="M 10.304688 -1.492188 L 8.597656 -13.289062 L 5.996094 -12.910156 L 7.058594 -5.554688 L 1.9375 -12.324219 L -0.667969 -11.945312 L 1.039062 -0.152344 L 3.644531 -0.527344 L 2.578125 -7.882812 L 7.703125 -1.113281 Z M 10.304688 -1.492188 "/></g></g></g><g fill="#ffffff" fill-opacity="1"><g transform="translate(179.843683, 91.456494)"><g><path d="M 4.539062 0.046875 L 7.167969 0.0742188 L 7.226562 -5.625 L 11.6875 -11.800781 L 8.550781 -11.832031 L 5.933594 -7.738281 L 3.398438 -11.886719 L 0.261719 -11.917969 L 4.597656 -5.648438 Z M 4.539062 0.046875 "/></g></g></g><path fill="#272727" d="M 290.0625 226.199219 C 290.421875 226.359375 290.765625 226.550781 291.085938 226.777344 C 291.410156 227.003906 291.707031 227.257812 291.984375 227.542969 C 292.257812 227.824219 292.5 228.132812 292.714844 228.460938 C 292.929688 228.792969 293.109375 229.140625 293.257812 229.507812 C 293.402344 229.871094 293.511719 230.25 293.585938 230.636719 C 293.660156 231.023438 293.695312 231.414062 293.695312 231.804688 C 293.695312 232.199219 293.652344 232.589844 293.578125 232.976562 C 293.5 233.363281 293.386719 233.738281 293.234375 234.101562 C 291.402344 237.972656 289.367188 241.734375 287.128906 245.386719 C 284.890625 249.035156 282.460938 252.554688 279.839844 255.945312 C 277.222656 259.332031 274.425781 262.570312 271.457031 265.65625 C 268.488281 268.742188 265.359375 271.65625 262.074219 274.40625 C 258.789062 277.152344 255.367188 279.714844 251.804688 282.09375 C 248.242188 284.46875 244.5625 286.648438 240.765625 288.628906 C 236.964844 290.605469 233.074219 292.375 229.085938 293.933594 C 225.09375 295.492188 221.035156 296.832031 216.898438 297.953125 C 216.515625 298.035156 216.125 298.082031 215.730469 298.089844 C 215.335938 298.097656 214.945312 298.066406 214.558594 297.996094 C 214.171875 297.929688 213.792969 297.824219 213.425781 297.683594 C 213.058594 297.542969 212.707031 297.367188 212.371094 297.160156 C 212.039062 296.949219 211.726562 296.710938 211.441406 296.441406 C 211.152344 296.171875 210.894531 295.878906 210.664062 295.558594 C 210.433594 295.238281 210.234375 294.898438 210.070312 294.542969 C 209.90625 294.183594 209.777344 293.8125 209.683594 293.429688 L 207.101562 281.507812 C 207.003906 281.109375 206.945312 280.707031 206.925781 280.300781 C 206.910156 279.890625 206.929688 279.484375 206.992188 279.082031 C 207.058594 278.675781 207.160156 278.285156 207.300781 277.898438 C 207.445312 277.515625 207.625 277.152344 207.839844 276.804688 C 208.054688 276.457031 208.304688 276.136719 208.585938 275.835938 C 208.863281 275.539062 209.171875 275.273438 209.507812 275.039062 C 209.839844 274.804688 210.195312 274.601562 210.570312 274.4375 C 210.941406 274.273438 211.332031 274.148438 211.730469 274.0625 C 214.902344 273.160156 218.019531 272.089844 221.078125 270.859375 C 224.136719 269.628906 227.125 268.242188 230.039062 266.699219 C 232.953125 265.152344 235.78125 263.460938 238.519531 261.621094 C 241.253906 259.78125 243.890625 257.804688 246.417969 255.6875 C 248.949219 253.570312 251.363281 251.328125 253.65625 248.960938 C 255.953125 246.589844 258.117188 244.109375 260.152344 241.511719 C 262.1875 238.917969 264.078125 236.222656 265.832031 233.425781 C 267.585938 230.632812 269.1875 227.753906 270.636719 224.792969 C 270.792969 224.414062 270.984375 224.054688 271.210938 223.714844 C 271.441406 223.375 271.699219 223.0625 271.992188 222.777344 C 272.28125 222.488281 272.597656 222.234375 272.941406 222.007812 C 273.28125 221.785156 273.644531 221.597656 274.023438 221.449219 C 274.402344 221.296875 274.792969 221.183594 275.195312 221.113281 C 275.597656 221.039062 276.003906 221.007812 276.414062 221.015625 C 276.820312 221.027344 277.226562 221.074219 277.625 221.167969 C 278.023438 221.257812 278.410156 221.386719 278.78125 221.554688 Z M 290.0625 226.199219 " fill-opacity="1" fill-rule="nonzero"/><g fill="#ffffff" fill-opacity="1"><g transform="translate(212.870579, 292.770615)"><g><path d="M 10.566406 -2.332031 L 9.320312 -15.449219 L 8.136719 -15.074219 L 8.976562 -6.261719 L 2.742188 -14.105469 L 2.140625 -4.097656 L -2.226562 -11.796875 L -3.429688 -11.417969 L 3.113281 0.0273438 L 3.710938 -11.046875 Z M 10.566406 -2.332031 "/></g></g></g><g fill="#ffffff" fill-opacity="1"><g transform="translate(231.392736, 286.376221)"><g><path d="M 7.699219 -10.777344 C 8.332031 -9.566406 8.433594 -8.3125 8.03125 -7.039062 C 7.625 -5.738281 6.816406 -4.78125 5.621094 -4.15625 C 4.421875 -3.535156 3.179688 -3.417969 1.894531 -3.835938 C 0.601562 -4.226562 -0.351562 -5.035156 -0.984375 -6.246094 C -1.601562 -7.429688 -1.71875 -8.671875 -1.308594 -9.972656 C -0.90625 -11.25 -0.109375 -12.21875 1.089844 -12.84375 C 2.285156 -13.46875 3.539062 -13.570312 4.828125 -13.175781 C 6.113281 -12.757812 7.085938 -11.960938 7.699219 -10.777344 Z M 8.789062 -11.347656 C 8.398438 -12.09375 7.878906 -12.710938 7.25 -13.234375 C 6.628906 -13.738281 5.941406 -14.113281 5.1875 -14.351562 C 4.4375 -14.570312 3.660156 -14.660156 2.859375 -14.601562 C 2.046875 -14.53125 1.265625 -14.320312 0.519531 -13.933594 C -0.226562 -13.542969 -0.859375 -13.015625 -1.367188 -12.394531 C -1.871094 -11.773438 -2.246094 -11.085938 -2.492188 -10.34375 C -2.730469 -9.589844 -2.816406 -8.808594 -2.757812 -8.011719 C -2.6875 -7.199219 -2.460938 -6.425781 -2.074219 -5.679688 C -1.683594 -4.933594 -1.171875 -4.292969 -0.550781 -3.785156 C 0.078125 -3.261719 0.765625 -2.890625 1.523438 -2.652344 C 2.277344 -2.414062 3.054688 -2.328125 3.855469 -2.386719 C 4.652344 -2.449219 5.441406 -2.679688 6.1875 -3.070312 C 6.933594 -3.460938 7.558594 -3.964844 8.082031 -4.59375 C 8.589844 -5.210938 8.960938 -5.902344 9.199219 -6.65625 C 9.4375 -7.414062 9.523438 -8.191406 9.457031 -9.007812 C 9.394531 -9.804688 9.179688 -10.601562 8.789062 -11.347656 Z M 8.789062 -11.347656 "/></g></g></g><g fill="#ffffff" fill-opacity="1"><g transform="translate(248.612766, 276.808745)"><g><path d="M 9.757812 -7.496094 L 10.742188 -8.257812 L 0.804688 -16.644531 L 3.921875 -6.175781 L -5.394531 -11.878906 L 0.140625 -0.105469 L 1.140625 -0.875 L -2.570312 -8.722656 L 5.875 -3.632812 L 3.113281 -13.09375 Z M 9.757812 -7.496094 "/></g></g></g><g fill="#ffffff" fill-opacity="1"><g transform="translate(263.672562, 264.476355)"><g><path d="M 5.785156 -6.082031 L 4.960938 -6.867188 L 0.925781 -2.625 L -2.148438 -5.550781 L 1.765625 -9.664062 L 0.929688 -10.460938 L -2.984375 -6.347656 L -6.058594 -9.269531 L -2.023438 -13.511719 L -2.847656 -14.296875 L -7.730469 -9.167969 L 0.90625 -0.953125 Z M 5.785156 -6.082031 "/></g></g></g><g fill="#ffffff" fill-opacity="1"><g transform="translate(273.996761, 253.088856)"><g><path d="M -5.667969 -7.171875 L 5.96875 -7.089844 L -4.332031 -14.445312 L -5.042969 -13.445312 L 2.089844 -8.351562 L -9.546875 -8.433594 L 0.765625 -1.070312 L 1.476562 -2.066406 Z M -5.667969 -7.171875 "/></g></g></g><g fill="#ffffff" fill-opacity="1"><g transform="translate(283.09852, 239.643758)"><g><path d="M -2.273438 -7.835938 L -5.816406 -14.730469 L -6.53125 -13.34375 L -3.628906 -7.84375 L -9.792969 -7.019531 L -10.515625 -5.617188 L -2.820312 -6.738281 L 2.152344 -4.175781 L 2.714844 -5.265625 Z M -2.273438 -7.835938 "/></g></g></g><g clip-path="url(#e0f8674c32)"><path fill="#272727" d="M 153.855469 150.445312 L 145.339844 163.308594 C 145.339844 163.308594 142.851562 166.726562 145.339844 171.941406 C 161.464844 180.515625 172.160156 205.894531 172.519531 207.164062 C 172.519531 207.164062 176.144531 218.214844 191.546875 217.128906 C 207.855469 216.039062 227.609375 214.046875 227.609375 214.046875 C 227.609375 214.046875 234.554688 211.210938 232.136719 207.523438 C 227.609375 200.613281 197.890625 196.109375 197.890625 196.109375 C 197.890625 196.109375 186.835938 194.246094 179.40625 180.515625 C 170.617188 164.269531 157.296875 149.355469 157.296875 149.355469 C 157.296875 149.355469 154.769531 149.0625 153.855469 150.445312 " fill-opacity="1" fill-rule="nonzero"/></g><path fill="#272727" d="M 146.0625 174.179688 C 146.0625 174.179688 154.941406 184.511719 155.667969 197.378906 C 156.394531 210.242188 155.667969 213.503906 155.667969 213.503906 C 155.667969 213.503906 157.84375 215.316406 160.015625 213.503906 C 159.835938 208.792969 160.015625 189.765625 160.015625 189.765625 C 160.015625 189.765625 160.199219 188.042969 160.46875 187.773438 C 160.742188 187.5 150.140625 174.179688 146.0625 174.179688 " fill-opacity="1" fill-rule="nonzero"/><g clip-path="url(#55b454ea49)"><path fill="#272727" d="M 184.300781 185.597656 C 184.300781 185.597656 206.769531 153.09375 215.828125 149.957031 C 228.332031 166.027344 224.164062 175.269531 224.164062 175.269531 C 224.164062 175.269531 219.871094 182.582031 216.375 199.007812 C 215.285156 198.464844 212.207031 197.917969 212.207031 197.917969 C 212.207031 197.917969 214.203125 185.042969 204.566406 183.265625 C 197.949219 182.035156 191.003906 191.941406 191.003906 191.941406 C 191.003906 191.941406 185.503906 188.074219 184.300781 185.597656 " fill-opacity="1" fill-rule="nonzero"/></g><path fill="#272727" d="M 191.371094 192.167969 C 191.371094 192.167969 200.851562 180.101562 207.011719 184.753906 C 200.96875 188.917969 197.769531 195.382812 197.769531 195.382812 C 197.769531 195.382812 195.171875 194.75 191.371094 192.167969 " fill-opacity="1" fill-rule="nonzero"/><g clip-path="url(#55cce50329)"><path fill="#ffffff" d="M 156.996094 152.132812 C 156.996094 152.132812 162.796875 158.296875 172.945312 181.007812 C 183.089844 203.71875 192.273438 202.992188 198.433594 202.148438 C 204.59375 201.300781 205.078125 199.851562 205.078125 199.851562 C 205.078125 199.851562 207.253906 200.0625 195.414062 196.832031 C 185.929688 194.246094 178.742188 181.25 178.742188 181.25 C 178.742188 181.25 175.875 174.125 156.996094 149.960938 C 154.5 149.835938 156.996094 152.132812 156.996094 152.132812 " fill-opacity="1" fill-rule="nonzero"/></g><g clip-path="url(#8b9a1331fd)"><path fill="#ffffff" d="M 186.695312 217.058594 C 175.355469 215.824219 172.519531 207.164062 172.519531 207.164062 C 172.378906 206.667969 170.683594 202.539062 167.710938 197.171875 C 170.683594 202.539062 172.378906 206.667969 172.519531 207.164062 C 172.519531 207.164062 175.359375 215.824219 186.695312 217.058594 M 167.703125 197.164062 C 167.703125 197.160156 167.703125 197.15625 167.703125 197.152344 C 167.703125 197.15625 167.703125 197.160156 167.703125 197.164062 " fill-opacity="1" fill-rule="nonzero"/></g><g clip-path="url(#7f5b3ef299)"><path fill="#272727" d="M 189.457031 217.203125 C 188.484375 217.203125 187.5625 217.152344 186.695312 217.058594 C 175.359375 215.824219 172.519531 207.164062 172.519531 207.164062 C 172.378906 206.667969 170.683594 202.539062 167.710938 197.171875 C 167.710938 197.171875 167.707031 197.167969 167.703125 197.164062 C 167.703125 197.160156 167.703125 197.15625 167.703125 197.152344 C 163.023438 188.699219 155.195312 177.179688 145.339844 171.9375 C 145.339844 171.9375 166.179688 178.53125 174.875 205.53125 C 178.613281 214.363281 191.023438 215.316406 198.433594 215.679688 L 227.609375 214.046875 C 227.609375 214.046875 207.855469 216.039062 191.546875 217.128906 C 190.828125 217.179688 190.128906 217.203125 189.457031 217.203125 " fill-opacity="1" fill-rule="nonzero"/></g><path fill="#ffffff" d="M 159.039062 214.09375 C 159.359375 213.96875 159.6875 213.777344 160.015625 213.503906 C 159.703125 213.804688 159.304688 213.992188 159.039062 214.09375 M 159.9375 205.257812 C 159.9375 198.222656 160.015625 189.765625 160.015625 189.765625 C 160.015625 189.765625 160.199219 188.042969 160.46875 187.773438 C 160.742188 187.5 150.140625 174.179688 146.0625 174.179688 C 150.140625 174.179688 160.742188 187.5 160.46875 187.773438 C 160.199219 188.042969 160.015625 189.765625 160.015625 189.765625 C 160.015625 189.765625 159.9375 198.222656 159.9375 205.257812 " fill-opacity="1" fill-rule="nonzero"/><path fill="#272727" d="M 158.738281 214.195312 C 158.738281 214.195312 159.382812 196.46875 159.019531 188.136719 C 155.578125 179.800781 146.0625 174.179688 146.0625 174.179688 C 150.140625 174.179688 160.742188 187.5 160.46875 187.773438 C 160.199219 188.042969 160.015625 189.765625 160.015625 189.765625 C 160.015625 189.765625 159.9375 198.222656 159.9375 205.257812 C 159.9375 208.773438 159.957031 211.933594 160.015625 213.503906 C 159.6875 213.777344 159.359375 213.96875 159.039062 214.09375 C 158.859375 214.164062 158.738281 214.195312 158.738281 214.195312 " fill-opacity="1" fill-rule="nonzero"/><path fill="#ffffff" d="M 212.375 195.207031 C 212.375 191.328125 211.378906 184.523438 204.566406 183.265625 C 204.179688 183.195312 203.789062 183.160156 203.402344 183.160156 C 197.160156 183.160156 191.003906 191.941406 191.003906 191.941406 C 191.003906 191.941406 185.503906 188.074219 184.300781 185.597656 C 185.503906 188.074219 191.003906 191.941406 191.003906 191.941406 C 191.003906 191.941406 197.160156 183.160156 203.402344 183.160156 C 203.789062 183.160156 204.179688 183.195312 204.566406 183.265625 C 211.378906 184.523438 212.375 191.328125 212.375 195.207031 " fill-opacity="1" fill-rule="nonzero"/><g clip-path="url(#937eedf6a3)"><path fill="#272727" d="M 216.375 199.007812 C 215.285156 198.464844 212.207031 197.917969 212.207031 197.917969 C 212.207031 197.917969 212.375 196.816406 212.375 195.207031 C 212.375 191.328125 211.378906 184.523438 204.566406 183.265625 C 204.179688 183.195312 203.789062 183.160156 203.402344 183.160156 C 197.160156 183.160156 191.003906 191.941406 191.003906 191.941406 C 191.003906 191.941406 185.503906 188.074219 184.300781 185.597656 C 184.300781 185.597656 206.769531 153.09375 215.828125 149.957031 C 223.332031 159.601562 224.832031 166.785156 224.832031 170.988281 C 224.832031 173.792969 224.164062 175.269531 224.164062 175.269531 C 224.164062 175.269531 219.871094 182.582031 216.375 199.007812 " fill-opacity="1" fill-rule="nonzero"/></g><path fill="#272727" d="M 197.769531 195.382812 C 197.769531 195.382812 195.171875 194.75 191.371094 192.167969 C 191.371094 192.167969 198.03125 183.6875 203.816406 183.6875 C 204.929688 183.6875 206.015625 184 207.011719 184.753906 C 200.96875 188.917969 197.769531 195.382812 197.769531 195.382812 " fill-opacity="1" fill-rule="nonzero"/></svg>